<?xml version="1.0"?>
<svg xmlns="http://www.w3.org/2000/svg" xmlns:xlink="http://www.w3.org/1999/xlink" xmlns:svgjs="http://svgjs.com/svgjs" version="1.1" width="512" height="512" x="0" y="0" viewBox="0 0 512 512" style="enable-background:new 0 0 512 512" xml:space="preserve" class=""><g><g xmlns="http://www.w3.org/2000/svg"><path d="m378 73h-4v25c0 24.81-20.19 45-45 45h-146c-24.81 0-45-20.19-45-45v-25h-4c-24.81 0-45 20.19-45 45v349c0 24.81 20.19 45 45 45h244c24.81 0 45-20.19 45-45v-349c0-24.81-20.19-45-45-45zm-208.52 168.07c8.49.9 14.26 8.4 13.45 16.41-.8 7.68-7.26 13.52-14.93 13.52-8.27 0-15-6.73-15-15 0-8.93 7.81-15.81 16.48-14.93zm-12.09 153.53c-8.81-8.81-3.61-24.18 9.13-25.53 9.07-.83 16.48 6.29 16.48 14.93 0 13.257-16.164 20.046-25.61 10.6zm25.54-73.12c-.8 7.75-7.33 13.52-14.93 13.52-8.26 0-15-6.75-15-15 0-9 7.89-15.81 16.47-14.93 8.37.87 14.28 8.28 13.46 16.41zm161.07 77.52h-112c-8.28 0-15-6.72-15-15s6.72-15 15-15h112c8.28 0 15 6.72 15 15s-6.72 15-15 15zm0-64h-112c-8.28 0-15-6.72-15-15s6.72-15 15-15h112c8.28 0 15 6.72 15 15s-6.72 15-15 15zm0-64h-112c-8.28 0-15-6.72-15-15s6.72-15 15-15h112c8.28 0 15 6.72 15 15s-6.72 15-15 15z" fill="#ffffff" data-original="#000000" style="" class=""/><path d="m344 56v42c0 8.284-6.716 15-15 15h-146c-8.284 0-15-6.716-15-15v-42c0-8.284 6.716-15 15-15h33c0-22.09 17.91-41 40-41s40 18.91 40 41h33c8.284 0 15 6.716 15 15z" fill="#ffffff" data-original="#000000" style="" class=""/></g></g></svg>
